<?xml version="1.0" encoding="UTF-8" standalone="no"?>
<svg
   version="1.0"
   width="243.000000pt"
   height="246.000000pt"
   viewBox="0 0 243.000000 246.000000"
   preserveAspectRatio="xMidYMid meet"
   id="svg147"
   sodipodi:docname="bug_tracker_logo.svg"
   inkscape:version="1.1.1 (3bf5ae0d25, 2021-09-20)"
   xmlns:inkscape="http://www.inkscape.org/namespaces/inkscape"
   xmlns:sodipodi="http://sodipodi.sourceforge.net/DTD/sodipodi-0.dtd"
   xmlns="http://www.w3.org/2000/svg"
   xmlns:svg="http://www.w3.org/2000/svg">
  <defs
     id="defs151" />
  <sodipodi:namedview
     id="namedview149"
     pagecolor="#ffffff"
     bordercolor="#666666"
     borderopacity="1.0"
     inkscape:pageshadow="2"
     inkscape:pageopacity="0.0"
     inkscape:pagecheckerboard="0"
     inkscape:document-units="pt"
     showgrid="false"
     inkscape:zoom="2.6615854"
     inkscape:cx="162.12142"
     inkscape:cy="162.68499"
     inkscape:window-width="2560"
     inkscape:window-height="1357"
     inkscape:window-x="0"
     inkscape:window-y="0"
     inkscape:window-maximized="1"
     inkscape:current-layer="svg147" />
  <g
     transform="translate(0.000000,246.000000) scale(0.100000,-0.100000)"
     fill="#000000"
     stroke="none"
     id="g145"
     style="fill:#ff0000">
    <path
       d="M1005 2228 c-183 -8 -195 -9 -195 -21 0 -4 -5 -5 -11 -2 -12 8 -529 -503 -529 -522 0 -7 -5 -13 -11 -13 -5 0 -8 -4 -5 -9 3 -5 -1 -25 -9 -45 -12 -29 -15 -98 -15 -388 0 -222 4 -367 11 -392 13 -46 19 -54 311 -344 149 -148 243 -234 271 -247 40 -19 63 -20 426 -20 300 0 385 3 389 13 2 6 8 10 13 6 5 -3 9 0 9 5 0 6 4 11 10 11 11 0 480 469 517 517 14 18 22 37 18 43 -3 5 0 10 8 10 8 0 17 10 20 23 3 12 6 168 6 347 0 333 -5 397 -41 465 -14 26 -389 410 -490 501 -61 55 -100 63 -333 66 -115 2 -282 0 -370 -4z m183 -650 c3 -37 4 -38 42 -38 38 0 39 1 42 38 2 30 7 38 27 40 30 5 41 -12 41 -63 0 -34 6 -47 40 -80 22 -21 40 -42 40 -45 0 -28 -209 -50 -300 -31 -89 19 -91 24 -42 73 37 39 42 49 42 89 0 53 5 61 40 57 21 -3 25 -9 28 -40z m-257 -79 c6 -12 9 -43 7 -70 -5 -46 -4 -48 26 -59 25 -9 33 -8 42 4 9 13 18 13 73 -4 42 -14 92 -20 151 -20 59 0 109 6 151 20 55 17 64 17 74 4 8 -12 16 -13 38 -5 25 10 27 15 27 69 0 60 11 82 42 82 22 0 38 -37 38 -88 0 -24 3 -32 9 -24 4 8 19 12 32 10 24 -3 24 -5 21 -92 -2 -49 -7 -97 -13 -107 -6 -12 -26 -20 -57 -24 -26 -3 -62 -8 -81 -11 l-33 -5 66 -46 c46 -33 66 -53 65 -67 0 -32 -54 -159 -71 -170 -22 -14 -48 0 -48 26 0 18 -7 12 -29 -26 -34 -57 -48 -68 -73 -55 -25 13 -23 31 9 88 23 41 25 51 15 64 -12 14 -18 13 -55 -13 -23 -16 -52 -31 -63 -35 -25 -7 -26 -4 -45 130 -6 50 -15 93 -19 98 -3 4 -12 -37 -19 -90 -18 -140 -19 -145 -45 -138 -11 4 -40 19 -63 35 -37 26 -43 27 -55 13 -10 -13 -8 -23 15 -64 32 -57 34 -75 9 -88 -25 -13 -39 -2 -73 55 -22 38 -29 44 -29 26 0 -26 -26 -40 -48 -26 -17 11 -71 138 -71 170 -1 14 19 34 65 67 l66 46 -33 5 c-19 3 -55 8 -81 11 -25 3 -51 11 -56 18 -5 7 -13 54 -17 104 -6 83 -5 94 10 99 10 4 26 2 36 -5 17 -10 19 -8 19 30 0 22 5 49 10 60 14 25 46 24 61 -2z"
       id="path131"
       style="fill:#ff0000" />
    <path
       d="M1141 1471 c-13 -24 8 -55 34 -50 28 6 42 34 26 53 -18 22 -48 20 -60 -3z"
       id="path133"
       style="fill:#ff0000" />
    <path
       d="M1259 1474 c-9 -11 -10 -20 -2 -32 15 -24 44 -27 59 -7 28 38 -27 75 -57 39z"
       id="path135"
       style="fill:#ff0000" />
    <path
       d="M870 1298 c0 -31 4 -34 68 -41 39 -5 43 -3 40 15 -2 15 -17 26 -55 38 l-53 17 0 -29z"
       id="path137"
       style="fill:#ff0000" />
    <path
       d="M1535 1310 c-36 -12 -51 -22 -53 -37 -3 -19 1 -20 45 -16 57 6 66 13 61 45 l-3 25 -50 -17z"
       id="path139"
       style="fill:#ff0000" />
    <path
       d="M963 1079 c-36 -23 -37 -26 -23 -64 l10 -25 35 39 c23 25 33 44 29 55 -8 20 -12 20 -51 -5z"
       id="path141"
       style="fill:#ff0000" />
    <path
       d="M1444 1085 c-4 -9 8 -31 30 -55 l36 -40 10 25 c14 38 13 41 -24 64 -40 25 -45 26 -52 6z"
       id="path143"
       style="fill:#ff0000" />
  </g>
  <path
     style="fill:#ff0000;stroke-width:0.375716"
     d="m 127.74341,297.54883 c -11.05961,-0.30015 -14.07041,-0.68553 -17.28293,-2.21221 -4.17563,-1.98438 -11.399111,-8.41987 -32.117038,-28.61349 -23.583391,-22.98656 -40.744921,-40.68589 -43.53734,-44.90167 -3.530267,-5.32973 -3.619894,-6.76562 -3.620881,-58.00932 -8.58e-4,-44.56186 0.07142,-46.53787 1.898702,-51.91031 0.505102,-1.48506 0.918368,-3.47577 0.918368,-4.42379 0,-1.42686 0.145503,-1.78755 0.844966,-2.09456 0.464732,-0.20398 1.103689,-0.9218 1.419906,-1.59515 0.774077,-1.64832 3.893,-5.062081 16.387597,-17.936753 9.315708,-9.599088 35.411433,-35.190937 44.543776,-43.683693 5.766854,-5.362971 9.052034,-8.015602 9.645144,-7.788005 0.33011,0.126673 0.87871,-0.173327 1.33689,-0.731065 0.66962,-0.81512 1.24455,-0.997407 4.15849,-1.318467 10.60148,-1.168079 44.38144,-2.049012 67.25315,-1.753866 30.00779,0.387233 36.63722,1.178826 43.23639,5.162676 1.15601,0.697874 4.32754,3.318563 7.04785,5.823753 6.05675,5.577806 39.26281,38.969683 50.01974,50.299633 11.97647,12.614467 13.11221,13.991767 14.50486,17.589867 1.40778,3.63715 2.39521,8.27869 2.97201,13.97027 0.75705,7.47016 1.13972,40.05549 0.77348,65.86346 -0.31897,22.47716 -0.40514,24.65125 -1.02742,25.9244 -0.48455,0.99134 -1.0562,1.5115 -1.99426,1.81462 -1.19431,0.38593 -1.31772,0.55836 -1.34453,1.87858 -0.0723,3.56376 -1.92237,5.63931 -31.89643,35.78495 -24.25837,24.39724 -37.99565,37.77086 -39.5038,38.45801 -0.50247,0.22894 -1.01563,0.82287 -1.14037,1.31984 -0.18159,0.72356 -0.40092,0.85987 -1.10087,0.68419 -0.60962,-0.153 -1.10296,0.0263 -1.63054,0.59258 -0.43955,0.4718 -1.50925,0.94214 -2.55335,1.12267 -5.00049,0.86466 -64.53182,1.32549 -88.21156,0.68285 z m 15.09226,-81.48849 c 1.87464,-0.85115 2.37853,-1.6768 2.37853,-3.89733 0,-1.34239 -0.58784,-2.82596 -3.00572,-7.58569 -1.65315,-3.25431 -3.00573,-6.37846 -3.00573,-6.94255 0,-1.21431 1.53511,-3.01392 2.57095,-3.01392 0.40054,0 2.22614,0.98302 4.05689,2.18449 4.44258,2.91553 7.86997,4.78806 9.79781,5.35295 3.08353,0.90352 3.44404,-0.0129 5.36425,-13.63571 1.72608,-12.24557 2.60013,-16.78328 3.0708,-15.94224 0.52309,0.93471 1.36148,5.56255 2.7677,15.27762 2.11049,14.58053 2.40483,15.31416 5.72229,14.26255 1.82551,-0.57867 5.45895,-2.58703 9.61597,-5.31517 1.83075,-1.20147 3.65635,-2.18449 4.05689,-2.18449 1.03584,0 2.57095,1.79961 2.57095,3.01392 0,0.56409 -1.35258,3.68824 -3.00573,6.94255 -3.1186,6.13914 -3.62599,8.09546 -2.59788,10.01651 0.58249,1.08839 3.50692,2.30187 4.84115,2.00882 1.55464,-0.34145 3.96273,-3.11591 7.09888,-8.1789 2.6618,-4.29719 3.43219,-4.98273 3.43219,-3.05417 0,1.23125 0.9512,3.03215 1.85777,3.51734 0.39757,0.21276 1.50247,0.38685 2.45534,0.38685 1.3262,0 1.94328,-0.21077 2.63124,-0.89874 2.0499,-2.04989 7.82908,-15.32776 8.8684,-20.37547 0.38613,-1.8753 0.38269,-2.52025 -0.0186,-3.48905 -0.71445,-1.72482 -4.49378,-5.02467 -10.92711,-9.54078 -4.052,-2.84445 -5.45359,-4.01389 -4.97287,-4.14916 0.36817,-0.1036 3.37455,-0.55007 6.68085,-0.99215 11.57966,-1.54831 13.77574,-2.21673 14.90649,-4.5371 0.91136,-1.87018 1.44177,-6.9288 1.69924,-16.20605 0.26387,-9.5083 0.17615,-9.84593 -2.66894,-10.27258 -1.85631,-0.27837 -4.28946,0.34299 -4.60956,1.17715 -0.44086,1.14886 -0.87432,-0.0273 -0.88673,-2.40606 -0.0313,-6.01311 -1.76287,-11.11841 -4.09914,-12.08612 -2.61664,-1.08384 -5.55266,0.69035 -6.34067,3.83158 -0.22183,0.88427 -0.51856,4.05931 -0.6594,7.05564 -0.3102,6.59973 -0.61453,7.49151 -2.92756,8.57876 -2.4973,1.17387 -4.12862,1.07876 -5.36869,-0.31301 -1.39648,-1.5673 -3.26977,-1.49577 -9.74331,0.37205 -6.98277,2.01474 -11.78693,2.63368 -20.44262,2.63368 -8.65569,0 -13.45985,-0.61894 -20.44262,-2.63368 -6.46132,-1.86429 -8.17628,-1.93114 -9.54436,-0.37205 -1.21701,1.38693 -2.87735,1.4876 -5.78605,0.35081 -3.20748,-1.25355 -3.1121,-0.99298 -3.12455,-8.53619 -0.0115,-6.96109 -0.21782,-8.09781 -1.7708,-9.75563 -0.95996,-1.02477 -2.99065,-1.63738 -4.45608,-1.34429 -2.70387,0.54077 -3.96541,3.50626 -4.39133,10.32268 -0.30217,4.83587 -0.1698,4.7067 -3.57783,3.49135 -2.30505,-0.82201 -4.59398,-0.29177 -5.15932,1.19516 -0.97129,2.5547 0.62453,21.68493 2.10514,25.23579 0.84492,2.0263 2.77421,2.56797 15.00691,4.21333 3.3063,0.44471 6.31268,0.89333 6.68085,0.99693 0.48072,0.13527 -0.92087,1.30471 -4.97287,4.14916 -6.43333,4.51611 -10.21266,7.81596 -10.92711,9.54078 -0.40128,0.9688 -0.40472,1.61375 -0.0186,3.48905 1.03932,5.04771 6.8185,18.32558 8.8684,20.37547 0.68796,0.68797 1.30504,0.89874 2.63124,0.89874 0.95287,0 2.05777,-0.17409 2.45534,-0.38685 0.90657,-0.48519 1.85777,-2.28609 1.85777,-3.51734 0,-1.92822 0.77031,-1.24325 3.43473,3.05417 3.70832,5.98111 5.86853,8.27791 7.83674,8.33227 0.30997,0.009 1.26849,-0.30449 2.13006,-0.69568 z m 29.8058,-74.0687 c 9.94613,-0.83799 16.90721,-2.7769 16.90721,-4.70925 0,-0.2689 -2.04695,-2.62909 -4.54878,-5.2449 -2.64834,-2.76898 -4.8317,-5.40511 -5.22596,-6.30969 -0.43345,-0.99452 -0.771,-3.04109 -0.9379,-5.68656 -0.42575,-6.74833 -1.59014,-8.39442 -5.6117,-7.93316 -2.71872,0.31183 -3.17959,0.96154 -3.79017,5.34324 -0.66963,4.80552 -0.91428,5.03207 -5.43417,5.03207 -4.44596,0 -4.74689,-0.26283 -5.40813,-4.72347 -0.27789,-1.87465 -0.69839,-3.76931 -0.93443,-4.21036 -0.65797,-1.22942 -4.74319,-2.06643 -6.60281,-1.35283 -1.1459,0.43973 -1.61837,2.17081 -1.88467,6.90522 -0.34235,6.08643 -0.8858,7.30786 -5.42711,12.19762 -5.06421,5.45279 -5.47649,6.66836 -2.72813,8.0435 1.20799,0.60442 5.34998,1.71299 9.45951,2.53177 3.79805,0.75672 13.93789,0.81014 22.16724,0.1168 z"
     id="path319"
     transform="scale(0.75)" />
  <path
     style="fill:#ffffff;stroke-width:0.375716"
     d="m 138.96146,215.68969 c -1.27309,-0.77629 -3.59419,-3.87592 -6.1093,-8.15844 -2.45762,-4.18462 -3.79374,-4.94234 -3.79374,-2.15142 0,2.92656 -3.76445,4.61493 -6.13394,2.75109 -2.65143,-2.08562 -9.84494,-20.187 -9.13943,-22.998 0.46581,-1.85593 5.85059,-6.35017 15.19176,-12.67931 1.06745,-0.72325 1.94517,-1.42446 1.9505,-1.55823 0.0123,-0.30846 -3.09347,-0.8406 -10.69821,-1.83302 -11.01342,-1.43725 -11.72867,-1.79693 -12.65048,-6.3616 -1.42958,-7.07909 -2.25359,-20.51691 -1.36027,-22.18301 0.85057,-1.58635 2.77523,-1.79949 5.39966,-0.59799 2.06969,0.94754 2.23689,0.96975 2.68517,0.3567 0.27633,-0.37792 0.48356,-1.77278 0.49114,-3.30589 0.0167,-3.38636 0.87923,-8.24925 1.67981,-9.47109 0.932,-1.42241 2.95006,-2.14828 4.52632,-1.62807 3.11746,1.02885 4.16254,4.26604 3.77443,11.69155 -0.17213,3.29342 -0.11458,5.04047 0.18792,5.70439 0.54496,1.19606 3.5838,2.57397 6.16206,2.79409 1.71015,0.146 1.97751,0.0563 2.98209,-1.00093 1.47314,-1.5503 2.9349,-1.52461 8.63164,0.15169 8.28106,2.43675 9.83995,2.62955 21.26141,2.62955 11.42146,0 12.98035,-0.1928 21.26141,-2.62955 5.65977,-1.66542 7.15947,-1.6978 8.60801,-0.18585 1.3683,1.4282 3.31824,1.49911 6.06425,0.22052 2.43311,-1.13289 2.62555,-1.70646 2.92182,-8.70838 0.24671,-5.83042 0.86948,-8.59204 2.22474,-9.86523 1.23743,-1.16251 3.34863,-1.4549 4.59734,-0.63672 1.95896,1.28357 3.5242,6.43459 3.54413,11.66335 0.0115,3.01767 0.41197,3.64074 1.61414,2.51135 1.76109,-1.65445 5.93345,-1.3836 6.41609,0.41651 0.63059,2.35196 -0.0196,17.68508 -0.95024,22.40912 -0.76926,3.90487 -2.48328,4.72986 -12.53079,6.03132 -7.56764,0.98024 -10.71057,1.51704 -10.69821,1.82719 0.005,0.13377 0.88305,0.83498 1.9505,1.55823 9.34117,6.32914 14.72595,10.82338 15.19176,12.67931 0.702,2.79702 -6.49973,20.92161 -9.13759,22.99656 -2.37128,1.86524 -6.13578,0.17824 -6.13578,-2.74965 0,-1.50111 -0.52271,-2.02363 -1.34318,-1.3427 -0.30736,0.25509 -1.50366,2.00263 -2.65844,3.88343 -5.20295,8.47408 -7.34378,9.90224 -10.6603,7.11158 -1.91203,-1.60887 -1.62712,-3.23009 1.73256,-9.8589 3.39034,-6.68931 3.68378,-7.99457 2.19501,-9.76387 -0.89198,-1.06006 -1.22359,-1.21213 -2.27219,-1.04197 -0.67527,0.10959 -2.71681,1.18039 -4.53673,2.37957 -3.95611,2.60674 -9.25525,5.3882 -10.26542,5.3882 -1.58406,0 -2.26126,-2.64271 -4.33249,-16.90722 -1.36222,-9.38148 -2.27813,-13.90149 -2.81694,-13.90149 -0.71878,0 -1.68353,4.84639 -3.17863,15.96793 -1.54575,11.49831 -2.2172,14.22428 -3.61277,14.66722 -1.01871,0.32332 -5.25986,-1.73609 -10.02408,-4.8675 -2.10957,-1.38656 -4.397,-2.61213 -5.08319,-2.72349 -1.06482,-0.17279 -1.39487,-0.0275 -2.25269,0.992 -0.61859,0.73516 -1.00507,1.64422 -1.00507,2.36412 0,0.71491 1.1686,3.48696 3.00573,7.12993 2.35799,4.67582 3.00573,6.30616 3.00573,7.56535 0,1.76535 -0.84441,2.8682 -2.7484,3.58961 -1.43701,0.54446 -1.7627,0.51095 -3.12863,-0.32194 z m -8.89293,-23.13528 c 5.07914,-5.68321 6.2444,-8.17525 4.79218,-10.24859 -0.88251,-1.25996 -2.22233,-1.03332 -5.39504,0.9126 -4.17503,2.56067 -5.29156,3.71629 -5.29156,5.4768 0,1.52045 2.12967,7.54841 2.59824,7.35424 0.15078,-0.0625 1.63406,-1.63526 3.29618,-3.49505 z m 72.6029,0.57569 c 1.47611,-3.82767 1.50642,-5.54592 0.12124,-6.87245 -1.65275,-1.58277 -7.25766,-4.78686 -8.37365,-4.78686 -2.08045,0 -2.69759,2.13431 -1.37158,4.74347 0.85431,1.681 7.63189,9.83879 8.21505,9.88798 0.13997,0.0118 0.77399,-1.32565 1.40894,-2.97214 z m -72.17474,-33.59016 c 0.34786,-3.04391 -1.32421,-4.37165 -8.52141,-6.76661 -2.86854,-0.95454 -5.4071,-1.73553 -5.64123,-1.73553 -0.53351,0 -0.58898,6.13146 -0.0643,7.11177 0.19875,0.37137 0.87386,0.88749 1.50025,1.14695 1.64412,0.68102 7.31613,1.45265 10.1613,1.38237 2.39354,-0.0591 2.44461,-0.0818 2.56542,-1.13895 z m 77.64462,0.34707 c 1.5773,-0.36891 2.5157,-0.83609 3.14204,-1.56425 0.83801,-0.97425 0.87683,-1.22499 0.62971,-4.06768 -0.14485,-1.66618 -0.33802,-3.1049 -0.42929,-3.19715 -0.22166,-0.22406 -6.04328,1.66348 -9.43654,3.0596 -3.2808,1.34986 -4.60851,2.73499 -4.60851,4.80782 0,0.7935 0.21134,1.53962 0.46964,1.65805 0.76563,0.35102 7.80204,-0.12784 10.23295,-0.69639 z"
     id="path962"
     transform="scale(0.75)" />
  <path
     style="fill:#ffffff;stroke-width:0.375716"
     d="m 155.73425,142.02828 c -6.5243,-0.46592 -14.29351,-2.32977 -15.56421,-3.73388 -0.40553,-0.44811 -0.56869,-1.01404 -0.42388,-1.47029 0.12949,-0.40797 1.85301,-2.49108 3.83005,-4.62913 5.11846,-5.5353 5.40434,-6.11028 5.81363,-11.69287 0.46571,-6.35201 0.59559,-6.94449 1.67785,-7.65361 0.70805,-0.46393 1.4463,-0.55915 3.051,-0.39353 2.86564,0.29576 3.45361,0.95935 3.92483,4.42966 0.78276,5.7647 0.98123,5.9634 5.95648,5.9634 4.97525,0 5.17372,-0.1987 5.95648,-5.9634 0.46159,-3.39941 1.12828,-4.20353 3.68685,-4.4468 1.46025,-0.13885 2.01664,-0.0143 2.84017,0.63585 1.259,0.99393 1.66761,2.50184 1.98986,7.34327 0.35337,5.30894 1.00364,6.55476 6.34862,12.16299 4.20986,4.41719 4.37824,4.65495 3.77156,5.32532 -2.39312,2.64437 -20.95362,4.97325 -32.85929,4.12302 z m 2.89138,-4.124 c 3.34026,-2.03669 3.34026,-5.88642 0,-7.9231 -2.25487,-1.37489 -5.33604,-0.65543 -6.45432,1.50709 -0.31347,0.60618 -0.56994,1.88826 -0.56994,2.84909 0,1.48577 0.19099,1.93793 1.27744,3.02438 1.06198,1.06199 1.55308,1.2772 2.9118,1.27603 0.95649,-8.3e-4 2.13235,-0.30505 2.83502,-0.73349 z m 15.48156,0.19052 c 2.88905,-1.49398 3.3789,-5.88506 0.85545,-7.66834 -2.29749,-1.62359 -5.06524,-1.33945 -7.04104,0.72284 -3.33884,3.48499 1.77453,9.22655 6.18559,6.9455 z"
     id="path1088"
     transform="scale(0.75)" />
</svg>
